<svg width="66" height="66" viewBox="0 0 66 66" fill="none" xmlns="http://www.w3.org/2000/svg">
<path d="M61.3292 16.7499C59.2437 17.6978 56.9958 18.3208 54.6667 18.6187C57.05 17.1833 58.8917 14.9083 59.7583 12.1728C57.5104 13.527 55.0187 14.4749 52.3917 15.0166C50.2521 12.6874 47.2458 11.3333 43.8333 11.3333C37.4688 11.3333 32.2688 16.5333 32.2688 22.952C32.2688 23.8728 32.3771 24.7666 32.5667 25.6062C22.925 25.1187 14.3396 20.4874 8.625 13.4728C7.62292 15.1791 7.05417 17.1833 7.05417 19.2958C7.05417 23.3312 9.08542 26.9062 12.2271 28.9374C10.3042 28.9374 8.51667 28.3958 6.94584 27.5833V27.6645C6.94584 33.2978 10.9542 38.0103 16.2625 39.0666C14.5582 39.533 12.769 39.5979 11.0354 39.2562C11.771 41.565 13.2117 43.5852 15.1548 45.0329C17.098 46.4805 19.446 47.2828 21.8688 47.327C17.7619 50.5782 12.6712 52.3356 7.43334 52.3103C6.5125 52.3103 5.59167 52.2562 4.67084 52.1478C9.81667 55.452 15.9375 57.3749 22.4917 57.3749C43.8333 57.3749 55.5604 39.6624 55.5604 24.3062C55.5604 23.7916 55.5604 23.3041 55.5333 22.7895C57.8083 21.1645 59.7583 19.1062 61.3292 16.7499Z" fill="#F4E9F7"/>
</svg>
