<svg width="66" height="66" viewBox="0 0 66 66" fill="none" xmlns="http://www.w3.org/2000/svg">
<path d="M35.7842 5.91935C37.7605 5.91176 39.7369 5.93163 41.7127 5.97893L42.2381 5.99789C42.8448 6.01956 43.4433 6.04664 44.1665 6.07914C47.0481 6.21456 49.0144 6.66956 50.7396 7.33852C52.5271 8.02643 54.0329 8.9581 55.5387 10.4639C56.9156 11.817 57.9812 13.4538 58.6615 15.2604C59.3304 16.9856 59.7854 18.9546 59.9208 21.8362C59.9533 22.5566 59.9804 23.1579 60.0021 23.7646L60.0183 24.29C60.0664 26.2649 60.0872 28.2403 60.0806 30.2158L60.0833 32.2362V35.7841C60.09 37.7605 60.0692 39.7369 60.021 41.7127L60.0048 42.2381C59.9831 42.8448 59.956 43.4433 59.9235 44.1664C59.7881 47.0481 59.3277 49.0143 58.6615 50.7396C57.9834 52.5481 56.9175 54.1862 55.5387 55.5387C54.1845 56.9154 52.5469 57.981 50.7396 58.6614C49.0144 59.3304 47.0481 59.7854 44.1665 59.9208C43.4433 59.9533 42.8448 59.9804 42.2381 60.0021L41.7127 60.0183C39.7369 60.0664 37.7605 60.0872 35.7842 60.0806L33.7637 60.0833H30.2185C28.2422 60.09 26.2658 60.0692 24.29 60.021L23.7646 60.0048C23.1216 59.9815 22.4789 59.9544 21.8362 59.9235C18.9546 59.7881 16.9883 59.3277 15.2604 58.6614C13.4531 57.9826 11.8161 56.9168 10.464 55.5387C9.08554 54.1853 8.01894 52.5475 7.33854 50.7396C6.66958 49.0143 6.21458 47.0481 6.07916 44.1664C6.049 43.5238 6.02192 42.881 5.99791 42.2381L5.98437 41.7127C5.93444 39.7369 5.91187 37.7605 5.91666 35.7841V30.2158C5.9091 28.2403 5.92897 26.2649 5.97625 24.29L5.9952 23.7646C6.01687 23.1579 6.04395 22.5566 6.07645 21.8362C6.21187 18.9518 6.66687 16.9883 7.33583 15.2604C8.01663 13.4529 9.08532 11.8166 10.4667 10.4666C11.8178 9.08743 13.4538 8.01986 15.2604 7.33852C16.9883 6.66956 18.9519 6.21456 21.8362 6.07914L23.7646 5.99789L24.29 5.98435C26.2649 5.93444 28.2403 5.91187 30.2158 5.91664L35.7842 5.91935ZM33 19.461C31.2057 19.4356 29.4243 19.7671 27.7593 20.4362C26.0943 21.1053 24.5788 22.0986 23.301 23.3585C22.0232 24.6183 21.0086 26.1196 20.316 27.775C19.6235 29.4304 19.2668 31.2069 19.2668 33.0013C19.2668 34.7958 19.6235 36.5723 20.316 38.2277C21.0086 39.8831 22.0232 41.3843 23.301 42.6442C24.5788 43.9041 26.0943 44.8974 27.7593 45.5665C29.4243 46.2355 31.2057 46.567 33 46.5416C36.5915 46.5416 40.0358 45.1149 42.5754 42.5754C45.115 40.0358 46.5417 36.5914 46.5417 33C46.5417 29.4085 45.115 25.9641 42.5754 23.4246C40.0358 20.885 36.5915 19.461 33 19.461ZM33 24.8777C34.0793 24.8578 35.1517 25.0532 36.1546 25.4524C37.1576 25.8516 38.0709 26.4467 38.8413 27.2029C39.6116 27.9591 40.2236 28.8612 40.6414 29.8565C41.0592 30.8519 41.2745 31.9205 41.2747 32.9999C41.2749 34.0794 41.0599 35.1481 40.6425 36.1436C40.225 37.1391 39.6133 38.0414 38.8432 38.7978C38.0731 39.5542 37.16 40.1496 36.1572 40.5492C35.1544 40.9488 34.082 41.1445 33.0027 41.125C30.8478 41.125 28.7812 40.269 27.2575 38.7452C25.7337 37.2215 24.8777 35.1549 24.8777 33C24.8777 30.8451 25.7337 28.7785 27.2575 27.2547C28.7812 25.731 30.8478 24.875 33.0027 24.875L33 24.8777ZM47.2187 15.3985C46.345 15.4335 45.5187 15.8052 44.9129 16.4357C44.3071 17.0663 43.9687 17.9068 43.9687 18.7812C43.9687 19.6557 44.3071 20.4962 44.9129 21.1267C45.5187 21.7573 46.345 22.129 47.2187 22.1639C48.1166 22.1639 48.9777 21.8073 49.6126 21.1724C50.2475 20.5375 50.6042 19.6764 50.6042 18.7785C50.6042 17.8806 50.2475 17.0196 49.6126 16.3847C48.9777 15.7498 48.1166 15.3931 47.2187 15.3931V15.3985Z" fill="#F4E9F7"/>
</svg>
