<svg width="66" height="66" viewBox="0 0 66 66" fill="none" xmlns="http://www.w3.org/2000/svg">
<path d="M19.2958 14.0417C19.2951 15.4783 18.7237 16.8557 17.7074 17.8711C16.6911 18.8864 15.313 19.4564 13.8765 19.4556C12.4399 19.4549 11.0624 18.8836 10.0471 17.8672C9.03177 16.8509 8.46178 15.4729 8.46249 14.0363C8.46321 12.5997 9.03458 11.2222 10.0509 10.2069C11.0672 9.19159 12.4453 8.6216 13.8819 8.62232C15.3185 8.62303 16.6959 9.19441 17.7112 10.2107C18.7266 11.2271 19.2965 12.6051 19.2958 14.0417ZM19.4583 23.4667H8.62499V57.375H19.4583V23.4667ZM36.575 23.4667H25.7958V57.375H36.4667V39.5813C36.4667 29.6688 49.3854 28.7479 49.3854 39.5813V57.375H60.0833V35.8979C60.0833 19.1875 40.9625 19.8104 36.4667 28.0167L36.575 23.4667Z" fill="#F4E9F7"/>
</svg>
