<svg width="116" height="58" viewBox="0 0 116 58" fill="none" xmlns="http://www.w3.org/2000/svg">
<g clip-path="url(#clip0_8_78)">
<path d="M6.624 38.3C8.232 34.748 9.672 31.928 10.944 29.84C13.008 26.408 15.156 23.372 17.388 20.732C15.732 20.444 14.244 20.3 12.924 20.3L14.472 16.016C18.984 16.16 22.908 16.748 26.244 17.78C27.492 18.164 28.752 18.632 30.024 19.184L32.832 25.484C31.176 27.836 29.052 29.876 26.46 31.604C23.892 33.308 21.108 34.568 18.108 35.384L15.732 32C13.86 35.144 12.192 38.504 10.728 42.08L6.624 38.3ZM16.272 31.1C21.336 29.348 25.14 26.936 27.684 23.864C25.404 22.664 22.344 21.68 18.504 20.912L21.6 23.468C19.68 25.892 17.904 28.436 16.272 31.1ZM40.4938 34.052C39.3658 34.052 38.4778 33.968 37.8298 33.8C37.4458 34.736 37.2058 35.9 37.1098 37.292C41.2378 37.052 45.2218 36.128 49.0618 34.52C50.3578 33.992 51.6058 33.368 52.8058 32.648L53.5618 36.284C51.3298 37.7 48.6898 38.948 45.6418 40.028C42.4018 41.18 39.3418 41.828 36.4618 41.972L31.9978 37.832C31.9978 34.52 32.8978 31.496 34.6978 28.76C35.9938 26.864 37.4578 25.364 39.0898 24.26C40.7458 23.156 42.3298 22.364 43.8418 21.884L49.9258 26.924C49.3258 29.42 48.1858 31.232 46.5058 32.36C44.8258 33.488 42.8218 34.052 40.4938 34.052ZM39.3418 30.56C40.7338 30.56 41.9458 30.176 42.9778 29.408C44.1778 28.496 44.7778 27.224 44.7778 25.592C42.3538 26.912 40.5418 28.568 39.3418 30.56ZM53.9969 24.872C55.1489 23.312 56.5889 21.692 58.3169 20.012L61.6649 22.604C61.4009 23.708 61.1729 24.512 60.9809 25.016C64.0769 24.68 66.3089 24.344 67.6769 24.008C69.0449 23.672 70.2329 23.372 71.2409 23.108L72.2489 27.392C71.2649 27.68 70.2329 27.932 69.1529 28.148C67.4969 30.764 66.1169 33.536 65.0129 36.464C68.9969 35.096 71.9369 33.824 73.8329 32.648L74.6249 36.284C72.4169 37.724 69.5249 39.2 65.9489 40.712C64.7969 41.192 63.6929 41.612 62.6369 41.972L58.8209 38.156C60.3809 34.58 62.0489 31.496 63.8249 28.904C62.1449 29.048 60.6569 29.144 59.3609 29.192C58.9769 29.912 57.9449 31.712 56.2649 34.592L53.6009 36.284L50.1809 34.268C52.1729 32.108 53.5169 30.596 54.2129 29.732C54.9089 28.868 55.5089 28.124 56.0129 27.5C55.3169 26.732 54.6449 25.856 53.9969 24.872ZM83.4443 38.732C81.5483 40.22 79.3643 41.3 76.8923 41.972L72.4283 37.832C72.4283 35.936 72.7163 34.076 73.2923 32.252C73.8683 30.428 74.7203 28.784 75.8483 27.32C76.9763 25.856 78.3683 24.644 80.0243 23.684C81.7043 22.7 83.6363 22.112 85.8203 21.92L87.8003 24.944C89.6723 21.32 91.6403 18.104 93.7043 15.296L97.1963 18.32C94.8203 21.344 92.3603 25.64 89.8163 31.208C89.0483 32.888 88.3643 34.532 87.7643 36.14C90.3323 35.372 93.0203 34.208 95.8283 32.648L96.6203 36.284C94.9883 37.508 92.3483 39.008 88.7003 40.784C87.6683 41.264 86.8403 41.612 86.2163 41.828L83.4443 38.732ZM77.4683 36.788C80.0363 36.092 82.3763 34.388 84.4883 31.676C85.1123 30.308 85.5803 28.604 85.8923 26.564C83.4203 26.804 81.3923 27.896 79.8083 29.84C78.2483 31.76 77.4683 34.076 77.4683 36.788ZM104.408 20.624C103.856 20.048 103.58 19.352 103.58 18.536C103.58 17.72 103.856 17.036 104.408 16.484C104.984 15.908 105.68 15.62 106.496 15.62C107.312 15.62 107.996 15.908 108.548 16.484C109.124 17.036 109.412 17.72 109.412 18.536C109.412 19.352 109.124 20.048 108.548 20.624C107.996 21.176 107.312 21.452 106.496 21.452C105.68 21.452 104.984 21.176 104.408 20.624ZM98.9722 36.464C101.42 35.72 104.36 34.448 107.792 32.648L108.548 36.284C106.22 37.796 103.412 39.272 100.124 40.712C99.0202 41.192 97.9402 41.612 96.8842 41.972L92.7442 38.156C93.9202 34.94 96.0322 30.932 99.0802 26.132C99.9922 24.692 100.88 23.432 101.744 22.352L105.308 24.98C103.556 27.38 101.852 30.272 100.196 33.656C99.7162 34.664 99.3082 35.6 98.9722 36.464Z" fill="#F4E9F7"/>
</g>
<defs>
<clipPath id="clip0_8_78">
<rect width="116" height="58" rx="16" fill="white"/>
</clipPath>
</defs>
</svg>
