<svg width="96" height="96" viewBox="0 0 96 96" fill="none" xmlns="http://www.w3.org/2000/svg">
<rect width="96" height="96" rx="16" fill="#030113"/>
<path d="M24.776 65.2C27.6347 58.8853 30.1947 53.872 32.456 50.16C36.1253 44.0587 39.944 38.6613 43.912 33.968C40.968 33.456 38.3227 33.2 35.976 33.2L38.728 25.584C46.7493 25.84 53.7253 26.8853 59.656 28.72C61.8747 29.4027 64.1147 30.2347 66.376 31.216L71.368 42.416C68.424 46.5973 64.648 50.224 60.04 53.296C55.4747 56.3253 50.5253 58.5653 45.192 60.016L40.968 54C37.64 59.5893 34.6747 65.5627 32.072 71.92L24.776 65.2ZM41.928 52.4C50.9307 49.2853 57.6933 44.9973 62.216 39.536C58.1627 37.4027 52.7227 35.6533 45.896 34.288L51.4 38.832C47.9867 43.1413 44.8293 47.664 41.928 52.4Z" fill="#F4E9F7"/>
</svg>
